<svg width="25" height="24" viewBox="0 0 25 24" fill="none" xmlns="http://www.w3.org/2000/svg">
<path d="M20.54 9.71903C20.54 9.30482 20.2042 8.96903 19.79 8.96903C19.3758 8.96903 19.04 9.30482 19.04 9.71903H20.54ZM5.95999 9.71903C5.95999 9.30482 5.62421 8.96903 5.20999 8.96903C4.79578 8.96903 4.45999 9.30482 4.45999 9.71903H5.95999ZM15.0132 20.7071L14.8408 19.9772L15.0132 20.7071ZM9.98673 20.7071L10.1592 19.9772L9.98673 20.7071ZM15.3284 5.01423L14.7962 5.54267L15.3284 5.01423ZM20.9678 11.7582C21.2596 12.0521 21.7345 12.0538 22.0284 11.7619C22.3224 11.4701 22.3241 10.9952 22.0322 10.7013L20.9678 11.7582ZM9.67157 5.01423L10.2038 5.54267L9.67157 5.01423ZM2.96779 10.7013C2.67594 10.9952 2.67762 11.4701 2.97155 11.7619C3.26548 12.0538 3.74035 12.0521 4.03221 11.7582L2.96779 10.7013ZM10.2184 18.3203L9.4813 18.1819L9.4813 18.1819L10.2184 18.3203ZM10.2378 18.2173L10.9749 18.3556L10.9749 18.3556L10.2378 18.2173ZM14.7622 18.2173L14.0251 18.3556V18.3556L14.7622 18.2173ZM14.7816 18.3203L15.5187 18.1819V18.1819L14.7816 18.3203ZM14.4918 20.5519L13.8146 20.2296V20.2296L14.4918 20.5519ZM13.6978 20.475C13.5198 20.849 13.6787 21.2965 14.0527 21.4745C14.4267 21.6525 14.8742 21.4936 15.0522 21.1196L13.6978 20.475ZM10.5082 20.5519L9.831 20.8742L9.831 20.8742L10.5082 20.5519ZM9.94778 21.1196C10.1258 21.4936 10.5733 21.6525 10.9473 21.4745C11.3213 21.2965 11.4802 20.849 11.3022 20.475L9.94778 21.1196ZM11.8611 16.4426L11.6605 15.7199H11.6605L11.8611 16.4426ZM13.1389 16.4426L13.3395 15.7199H13.3395L13.1389 16.4426ZM19.04 9.71903V14.6374H20.54V9.71903H19.04ZM5.95999 14.6374V9.71903H4.45999V14.6374H5.95999ZM14.8408 19.9772C13.3011 20.3409 11.6988 20.3409 10.1592 19.9772L9.8143 21.437C11.5808 21.8543 13.4192 21.8543 15.1857 21.437L14.8408 19.9772ZM10.1592 19.9772C7.7026 19.3969 5.95999 17.1877 5.95999 14.6374H4.45999C4.45999 17.8765 6.67421 20.6952 9.8143 21.437L10.1592 19.9772ZM15.1857 21.437C18.3258 20.6952 20.54 17.8765 20.54 14.6374H19.04C19.04 17.1877 17.2974 19.3969 14.8408 19.9772L15.1857 21.437ZM14.7962 5.54267L20.9678 11.7582L22.0322 10.7013L15.8606 4.48578L14.7962 5.54267ZM9.13937 4.48578L2.96779 10.7013L4.03221 11.7582L10.2038 5.54267L9.13937 4.48578ZM15.8606 4.48578C15.2089 3.82945 14.6681 3.28246 14.1818 2.90885C13.6785 2.52211 13.1458 2.25 12.5 2.25V3.75C12.6827 3.75 12.8974 3.81359 13.2679 4.09826C13.6555 4.39606 14.1146 4.85618 14.7962 5.54267L15.8606 4.48578ZM10.2038 5.54267C10.8854 4.85618 11.3445 4.39606 11.7321 4.09826C12.1026 3.81359 12.3173 3.75 12.5 3.75V2.25C11.8542 2.25 11.3215 2.52211 10.8182 2.90885C10.3319 3.28246 9.79106 3.82945 9.13937 4.48578L10.2038 5.54267ZM10.9555 18.4587L10.9749 18.3556L9.50064 18.0789L9.4813 18.1819L10.9555 18.4587ZM14.0251 18.3556L14.0445 18.4587L15.5187 18.1819L15.4994 18.0789L14.0251 18.3556ZM13.8146 20.2296L13.6978 20.475L15.0522 21.1196L15.169 20.8742L13.8146 20.2296ZM9.831 20.8742L9.94778 21.1196L11.3022 20.475L11.1854 20.2296L9.831 20.8742ZM14.0445 18.4587C14.1571 19.0588 14.0764 19.6793 13.8146 20.2296L15.169 20.8742C15.5675 20.0369 15.6899 19.0937 15.5187 18.1819L14.0445 18.4587ZM9.4813 18.1819C9.31015 19.0937 9.43254 20.0369 9.831 20.8742L11.1854 20.2296C10.9236 19.6793 10.8429 19.0588 10.9556 18.4587L9.4813 18.1819ZM12.0616 17.1652C12.3485 17.0856 12.6515 17.0856 12.9384 17.1652L13.3395 15.7199C12.7901 15.5674 12.2099 15.5674 11.6605 15.7199L12.0616 17.1652ZM15.4994 18.0789C15.2865 16.9449 14.4504 16.0281 13.3395 15.7199L12.9384 17.1652C13.4935 17.3193 13.917 17.7794 14.0251 18.3556L15.4994 18.0789ZM10.9749 18.3556C11.083 17.7794 11.5065 17.3193 12.0616 17.1652L11.6605 15.7199C10.5496 16.0281 9.71349 16.9449 9.50064 18.0789L10.9749 18.3556Z" fill="#F3F3F3"/>
</svg>
